<svg width="35" height="35" viewBox="0 0 35 35" fill="none" xmlns="http://www.w3.org/2000/svg">
<mask id="mask0_10421_18981" style="mask-type:luminance" maskUnits="userSpaceOnUse" x="0" y="0" width="35" height="35">
<path d="M35 0H0V35H35V0Z" fill="white"/>
</mask>
<g mask="url(#mask0_10421_18981)">
<path d="M16.4564 13.1388C17.8654 12.4318 18.9934 11.2708 19.6604 9.8418C20.3264 8.4138 20.4914 6.8028 20.1284 5.2688C19.7644 3.7358 18.8944 2.36982 17.6584 1.39182C16.4224 0.414815 14.8924 -0.117188 13.3164 -0.117188C11.7404 -0.117188 10.2104 0.414815 8.97438 1.39182C7.73838 2.36982 6.86839 3.7358 6.50439 5.2688C6.14139 6.8028 6.30638 8.4138 6.97238 9.8418C7.63938 11.2708 8.76738 12.4318 10.1764 13.1388C7.18538 13.9968 4.56238 15.8228 2.72038 18.3308C0.878384 20.8388 -0.0796155 23.8878 -0.00361547 26.9988H26.6364C26.7124 23.8878 25.7544 20.8388 23.9124 18.3308C22.0704 15.8228 19.4474 13.9968 16.4564 13.1388Z" fill="#E71356"/>
<path d="M24.1278 34.9978C30.1308 34.9978 34.9978 30.1308 34.9978 24.1278C34.9978 18.1248 30.1308 13.2578 24.1278 13.2578C18.1248 13.2578 13.2578 18.1248 13.2578 24.1278C13.2578 30.1308 18.1248 34.9978 24.1278 34.9978Z" fill="#AB99FF"/>
<path d="M19.45 14.3359C17.146 15.4239 15.301 17.2909 14.24 19.6079C13.179 21.9239 12.97 24.5409 13.65 26.9959H26.65C26.69 24.4349 26.043 21.9099 24.777 19.6839C23.511 17.4579 21.671 15.6109 19.45 14.3359Z" fill="#5C00DC"/>
</g>
</svg>
